<svg xmlns="http://www.w3.org/2000/svg" version="1.1" xmlns:xlink="http://www.w3.org/1999/xlink" width="1500" height="1500" viewBox="0 0 1500 1500"><rect width="1500" height="1500" x="0" y="0" id="background" stroke="transparent" fill="#090909"></rect><svg xml:space="preserve" width="1000" height="1000" data-version="2" data-id="lg_0iZP7VxUtLDLAdM7OY" viewBox="0 0 480 151" x="250" y="250"><rect width="100%" height="100%" fill="transparent"></rect><g transform="translate(107.912 47.17)scale(1.8277)"><linearGradient id="a" x1="0" x2="1" y1="0" y2="0" gradientUnits="objectBoundingBox"><stop offset="0%" stop-color="#7d7d7d"></stop><stop offset="49.8%" stop-color="#efefef"></stop><stop offset="100%" stop-color="#7d7d7d"></stop></linearGradient><path fill="url(#a)" d="M81 10c-5.5 0-10 4.5-10 10 0 1.4.3 2.6.8 3.8L54.5 41.1c-1.4-.7-2.9-1.1-4.5-1.1-5.5 0-10 4.5-10 10s4.5 10 10 10a10.03 10.03 0 0 0 7.7-16.4l16.4-16.4c1.8 1.7 4.2 2.8 6.9 2.8 5.5 0 10-4.5 10-10s-4.5-10-10-10M50 56c-3.3 0-6-2.7-6-6s2.7-6 6-6 6 2.7 6 6-2.7 6-6 6m31-30c-3.3 0-6-2.7-6-6s2.7-6 6-6 6 2.7 6 6-2.7 6-6 6" transform="translate(-65.5 -35)"></path></g><g transform="translate(79.583 19.755)scale(1.8277)"><linearGradient id="b" x1="0" x2="1" y1="0" y2="0" gradientUnits="objectBoundingBox"><stop offset="0%" stop-color="#7d7d7d"></stop><stop offset="49.8%" stop-color="#efefef"></stop><stop offset="100%" stop-color="#7d7d7d"></stop></linearGradient><path fill="url(#b)" d="M50 30c5.5 0 10-4.5 10-10s-4.5-10-10-10-10 4.5-10 10 4.5 10 10 10m0-16c3.3 0 6 2.7 6 6s-2.7 6-6 6-6-2.7-6-6 2.7-6 6-6" transform="translate(-50 -20)"></path></g><g transform="translate(136.241 74.586)scale(1.8277)"><linearGradient id="c" x1="0" x2="1" y1="0" y2="0" gradientUnits="objectBoundingBox"><stop offset="0%" stop-color="#7d7d7d"></stop><stop offset="49.8%" stop-color="#efefef"></stop><stop offset="100%" stop-color="#7d7d7d"></stop></linearGradient><path fill="url(#c)" d="M81 40c-5.5 0-10 4.5-10 10s4.5 10 10 10 10-4.5 10-10-4.5-10-10-10m0 16c-3.3 0-6-2.7-6-6s2.7-6 6-6 6 2.7 6 6-2.7 6-6 6" transform="translate(-81 -50)"></path></g><g transform="translate(22.924 129.417)scale(1.8277)"><linearGradient id="d" x1="0" x2="1" y1="0" y2="0" gradientUnits="objectBoundingBox"><stop offset="0%" stop-color="#7d7d7d"></stop><stop offset="49.8%" stop-color="#efefef"></stop><stop offset="100%" stop-color="#7d7d7d"></stop></linearGradient><path fill="url(#d)" d="M19 70c-5.5 0-10 4.5-10 10s4.5 10 10 10 10-4.5 10-10-4.5-10-10-10m0 16c-3.3 0-6-2.7-6-6s2.7-6 6-6 6 2.7 6 6-2.7 6-6 6" transform="translate(-19 -80)"></path></g><g transform="translate(79.583 74.586)scale(1.8277)"><linearGradient id="e" x1="0" x2="1" y1="0" y2="0" gradientUnits="objectBoundingBox"><stop offset="0%" stop-color="#7d7d7d"></stop><stop offset="49.8%" stop-color="#efefef"></stop><stop offset="100%" stop-color="#7d7d7d"></stop></linearGradient><path fill="url(#e)" d="M81 70c-4.8 0-8.9 3.4-9.8 8H59.8c-.9-4.6-5-8-9.8-8-3.1 0-5.9 1.4-7.7 3.7L25.8 57.3A9.98 9.98 0 0 0 21 40.2V29.8c4.6-.9 8-5 8-9.8 0-5.5-4.5-10-10-10S9 14.5 9 20c0 4.8 3.4 8.9 8 9.8v10.4c-4.6.9-8 5-8 9.8 0 5.5 4.5 10 10 10q1.8 0 3.3-.6l18 18c-.2.9-.3 1.7-.3 2.6 0 5.5 4.5 10 10 10 4.8 0 8.9-3.4 9.8-8h11.4c.9 4.6 5 8 9.8 8 5.5 0 10-4.5 10-10s-4.5-10-10-10M13 20c0-3.3 2.7-6 6-6s6 2.7 6 6-2.7 6-6 6-6-2.7-6-6m0 30c0-3.3 2.7-6 6-6s6 2.7 6 6-2.7 6-6 6-6-2.7-6-6m37 36c-3.3 0-6-2.7-6-6s2.7-6 6-6 6 2.7 6 6-2.7 6-6 6m31 0c-3.3 0-6-2.7-6-6s2.7-6 6-6 6 2.7 6 6-2.7 6-6 6" transform="translate(-50 -50)"></path></g><g transform="translate(220.067 64.98)"><linearGradient id="f" x1="-.012" x2="5.912" y1="0" y2="0" gradientUnits="objectBoundingBox"><stop offset="0%" stop-color="#7d7d7d"></stop><stop offset="49.8%" stop-color="#efefef"></stop><stop offset="100%" stop-color="#7d7d7d"></stop></linearGradient><path fill="url(#f)" d="M356.7 422.37q-7.59 0-11.62-3.06-4.03-3.05-4.07-8.66-.18-10.27-.18-21.19 0-10.93.18-21.15.04-5.7 4.07-8.71 4.03-3.01 11.62-3.01 7.47 0 11.52 3.01t4.14 8.71q.36 10.22.36 21.19t-.36 21.15q-.09 5.61-4.14 8.66-4.05 3.06-11.52 3.06m0-5.75q9.23 0 9.37-4.84.45-11.94.41-23.5-.05-11.56-.41-21.1-.27-4.89-9.37-4.89-4.38 0-6.85 1.25-2.46 1.24-2.55 3.64-.32 11.67-.32 23.2 0 11.54.32 21.4.09 2.35 2.55 3.6 2.47 1.24 6.85 1.24" transform="translate(-356.775 -389.48)"></path></g><g transform="translate(260.192 64.98)"><linearGradient id="g" x1="-1.071" x2="5.257" y1="0" y2="0" gradientUnits="objectBoundingBox"><stop offset="0%" stop-color="#7d7d7d"></stop><stop offset="49.8%" stop-color="#efefef"></stop><stop offset="100%" stop-color="#7d7d7d"></stop></linearGradient><path fill="url(#g)" d="M387.28 397.31v24.47H381v-64.6h15.24q8.19 0 11.94 2.63 3.76 2.62 4.16 8.68.46 5.07.46 9.14t-.46 8.37q-.4 6.01-4.18 8.66-3.78 2.65-12.1 2.65zm8.96-34.34h-8.96v28.54h8.78q5.25 0 7.53-1.28 2.29-1.29 2.51-3.96.68-9 0-18.1-.22-2.67-2.49-3.93-2.26-1.27-7.37-1.27" transform="translate(-396.9 -389.48)"></path></g><g transform="translate(293.997 64.98)"><linearGradient id="h" x1="-2.479" x2="5.29" y1="0" y2="0" gradientUnits="objectBoundingBox"><stop offset="0%" stop-color="#7d7d7d"></stop><stop offset="49.8%" stop-color="#efefef"></stop><stop offset="100%" stop-color="#7d7d7d"></stop></linearGradient><path fill="url(#h)" d="M433.83 362.97v58.81h-6.29v-58.81h-12.35v-5.79h31.03v5.79z" transform="translate(-430.705 -389.48)"></path></g><g transform="translate(319.087 64.98)"><linearGradient id="i" x1="-5.985" x2="8.102" y1="0" y2="0" gradientUnits="objectBoundingBox"><stop offset="0%" stop-color="#7d7d7d"></stop><stop offset="49.8%" stop-color="#efefef"></stop><stop offset="100%" stop-color="#7d7d7d"></stop></linearGradient><path fill="url(#i)" d="M458.94 357.18v64.6h-6.29v-64.6z" transform="translate(-455.795 -389.48)"></path></g><g transform="translate(347.762 64.98)"><linearGradient id="j" x1="-3.617" x2="3.195" y1="0" y2="0" gradientUnits="objectBoundingBox"><stop offset="0%" stop-color="#7d7d7d"></stop><stop offset="49.8%" stop-color="#efefef"></stop><stop offset="100%" stop-color="#7d7d7d"></stop></linearGradient><path fill="url(#j)" d="M475.58 401.87v19.91h-6.42v-64.6h6.6v15.34l-.81 16.15h1.81l8-17.38 6.43-14.11h6.96L484 385.68l15.78 36.1h-6.65l-13.11-28.5z" transform="translate(-484.47 -389.48)"></path></g><g transform="translate(384.323 65.275)"><linearGradient id="k" x1="-4.047" x2="1.801" y1="0" y2="0" gradientUnits="objectBoundingBox"><stop offset="0%" stop-color="#7d7d7d"></stop><stop offset="49.8%" stop-color="#efefef"></stop><stop offset="100%" stop-color="#7d7d7d"></stop></linearGradient><path fill="url(#k)" d="M521.09 422.37q-8.73 0-12.62-2.67-3.89-2.67-3.94-8.78-.63-26.87 0-53.74h6.29q-.27 13.39-.36 27.39-.09 14 .13 27.44 0 4.93 10.5 4.93 5.43 0 7.82-1.22 2.4-1.23 2.4-3.71.23-13.44.23-27.44 0-14-.23-27.39h6.29q.54 26.87 0 53.74-.05 6.11-3.94 8.78-3.89 2.67-12.57 2.67" transform="translate(-521.031 -389.775)"></path></g><g transform="translate(424.802 64.98)"><linearGradient id="l" x1="-5.215" x2=".861" y1="0" y2="0" gradientUnits="objectBoundingBox"><stop offset="0%" stop-color="#7d7d7d"></stop><stop offset="49.8%" stop-color="#efefef"></stop><stop offset="100%" stop-color="#7d7d7d"></stop></linearGradient><path fill="url(#l)" d="M560.85 421.78h-15.33v-64.6h15.19q8.55 0 12.4 2.63 3.84 2.62 4.07 8.68.27 6.74 0 11.54-.32 6.69-7.78 8.45v1.54q4.03.91 5.88 2.97 1.85 2.05 1.99 5.63.23 3.16.23 5.9t-.23 5.95q-.23 6.01-4.09 8.66-3.87 2.65-12.33 2.65m-.14-58.81h-8.91v23.34h8.82q5.25 0 7.65-1.58 2.4-1.58 2.62-4.89.59-5.83 0-11.67-.22-2.67-2.62-3.93-2.4-1.27-7.56-1.27m-.63 29.13h-8.28v23.89h9.05q5.11 0 7.55-1.38 2.45-1.38 2.58-4.23.46-5.75 0-11.49-.13-3.71-2.69-5.25-2.55-1.54-8.21-1.54" transform="translate(-561.51 -389.48)"></path></g><g transform="translate(461.757 64.98)"><linearGradient id="m" x1="-7.397" x2=".024" y1="0" y2="0" gradientUnits="objectBoundingBox"><stop offset="0%" stop-color="#7d7d7d"></stop><stop offset="49.8%" stop-color="#efefef"></stop><stop offset="100%" stop-color="#7d7d7d"></stop></linearGradient><path fill="url(#m)" d="M612.06 415.99v5.79h-27.19v-64.6h27.19v5.79h-20.9v23.34h19.49v5.79h-19.49v23.89z" transform="translate(-598.465 -389.48)"></path></g><g transform="translate(211.675 122.38)"><linearGradient id="n" x1="-6.635" x2="39.451" y1="0" y2="0" gradientUnits="objectBoundingBox"><stop offset="0%" stop-color="#7d7d7d"></stop><stop offset="49.8%" stop-color="#efefef"></stop><stop offset="100%" stop-color="#7d7d7d"></stop></linearGradient><path fill="url(#n)" d="M348.37 453.27q-1.67 0-2.4-.53-.73-.52-.76-1.72-.08-2.02-.08-4.13t.08-4.11q.03-1.24.76-1.77.73-.52 2.38-.52 1.6 0 2.33.52.73.51.8 1.71.05.56.04 1.14 0 .58-.04 1.14h-1.23q.05-.59.05-1.24.01-.65-.05-1.24-.03-.5-.49-.74-.46-.24-1.41-.24-.98 0-1.44.24-.46.24-.48.74-.07 2.17-.07 4.35.01 2.19.07 4.35.02.51.47.75.44.24 1.47.24 1.02 0 1.51-.24.48-.24.51-.75.02-1.2 0-2.38h-2.06v-1.11h3.25q.04.61.05 1.43.01.82-.04 1.86-.03 1.2-.79 1.72-.76.53-2.43.53" transform="translate(-348.383 -446.88)"></path></g><g transform="translate(217.072 122.945)"><linearGradient id="o" x1="-18.428" x2="94.223" y1="0" y2="0" gradientUnits="objectBoundingBox"><stop offset="0%" stop-color="#7d7d7d"></stop><stop offset="49.8%" stop-color="#efefef"></stop><stop offset="100%" stop-color="#7d7d7d"></stop></linearGradient><path fill="url(#o)" d="M354.35 441.74v1.27h-1.13v-1.27zm0 2.86v8.55h-1.14v-8.55z" transform="translate(-353.78 -447.445)"></path></g><g transform="translate(221.802 124.375)"><linearGradient id="p" x1="-9.973" x2="47.37" y1="0" y2="0" gradientUnits="objectBoundingBox"><stop offset="0%" stop-color="#7d7d7d"></stop><stop offset="49.8%" stop-color="#efefef"></stop><stop offset="100%" stop-color="#7d7d7d"></stop></linearGradient><path fill="url(#p)" d="m361.36 444.6-1.71 8.55h-2.37l-1.62-8.55h1.18l.66 4.3.63 3.28h.68l.65-3.28.72-4.3z" transform="translate(-358.51 -448.875)"></path></g><g transform="translate(228.312 124.375)"><linearGradient id="q" x1="-10.212" x2="43.084" y1="0" y2="0" gradientUnits="objectBoundingBox"><stop offset="0%" stop-color="#7d7d7d"></stop><stop offset="49.8%" stop-color="#efefef"></stop><stop offset="100%" stop-color="#7d7d7d"></stop></linearGradient><path fill="url(#q)" d="M365.1 453.26q-1.45 0-2.07-.46-.62-.46-.67-1.49-.03-.65-.04-1.53-.02-.88 0-1.77.01-.89.04-1.55.05-1.06.69-1.52.63-.45 2.05-.45 1.33 0 1.93.44.6.45.66 1.48.02.31.04 1.07.01.77-.06 1.63h-4.21q0 .55.01 1.12.01.58.04 1.19.01.48.37.67.36.18 1.18.18t1.15-.18q.34-.19.37-.67.03-.48 0-1.32h1.09q.05.26.04.6 0 .33-.02.61-.06 1.03-.63 1.49-.56.46-1.96.46m-1.64-5.08h3.14q.02-.6.02-1.15 0-.54-.04-.74-.03-.44-.37-.63-.35-.19-1.11-.19-.85 0-1.22.19-.36.19-.37.63-.03.51-.04.97-.02.47-.01.92" transform="translate(-365.02 -448.875)"></path></g><g transform="translate(238.672 122.375)"><linearGradient id="r" x1="-11.223" x2="39.695" y1="0" y2="0" gradientUnits="objectBoundingBox"><stop offset="0%" stop-color="#7d7d7d"></stop><stop offset="49.8%" stop-color="#efefef"></stop><stop offset="100%" stop-color="#7d7d7d"></stop></linearGradient><path fill="url(#r)" d="M376 449.91v3.24h-1.24v-3.26l-2.57-9.29h1.28l.96 3.46.77 3.96h.39l.72-3.96.97-3.46h1.29z" transform="translate(-375.38 -446.875)"></path></g><g transform="translate(245.587 124.375)"><linearGradient id="s" x1="-12.585" x2="39.871" y1="0" y2="0" gradientUnits="objectBoundingBox"><stop offset="0%" stop-color="#7d7d7d"></stop><stop offset="49.8%" stop-color="#efefef"></stop><stop offset="100%" stop-color="#7d7d7d"></stop></linearGradient><path fill="url(#s)" d="M382.31 453.26q-1.44 0-2.02-.49-.59-.5-.64-1.64-.05-.65-.07-1.45-.02-.79 0-1.6t.07-1.47q.05-1.14.64-1.63t2.02-.49q1.44 0 2.01.49.58.49.62 1.63.06.65.07 1.45.02.79 0 1.6-.01.8-.07 1.47-.04 1.13-.62 1.63-.57.5-2.01.5m0-.99q.81 0 1.15-.19.34-.2.37-.66.09-1.37.09-2.55 0-1.18-.09-2.55-.03-.46-.36-.66-.34-.19-1.16-.19-.83 0-1.17.19-.34.2-.36.66-.08 1.37-.09 2.56 0 1.18.09 2.54.02.46.37.66.36.19 1.16.19" transform="translate(-382.295 -448.875)"></path></g><g transform="translate(252.377 124.43)"><linearGradient id="t" x1="-13.62" x2="38.975" y1="0" y2="0" gradientUnits="objectBoundingBox"><stop offset="0%" stop-color="#7d7d7d"></stop><stop offset="49.8%" stop-color="#efefef"></stop><stop offset="100%" stop-color="#7d7d7d"></stop></linearGradient><path fill="url(#t)" d="M388.46 453.26q-.98 0-1.48-.44t-.5-1.45v-6.77h1.13v6.86q0 .44.27.64t.89.2q.62 0 1.09-.21.47-.21.69-.59v-6.9h1.14v8.55h-1.14v-.81h-.24q-.58.92-1.85.92" transform="translate(-389.085 -448.93)"></path></g><g transform="translate(258.947 124.32)"><linearGradient id="u" x1="-16.69" x2="43.493" y1="0" y2="0" gradientUnits="objectBoundingBox"><stop offset="0%" stop-color="#7d7d7d"></stop><stop offset="49.8%" stop-color="#efefef"></stop><stop offset="100%" stop-color="#7d7d7d"></stop></linearGradient><path fill="url(#u)" d="M394.5 446.24v6.91h-1.14v-8.55h1.14v.8h.24q.23-.44.61-.68.38-.23.94-.23.84 0 1.25.44.41.44.41 1.53 0 .24-.02.57-.01.32-.05.58h-1.09q.02-.09.02-.31.01-.22.01-.44.01-.22.01-.3 0-.65-.22-.88-.22-.24-.71-.24-1.02 0-1.4.8" transform="translate(-395.655 -448.82)"></path></g><g transform="translate(269.182 122.375)"><linearGradient id="v" x1="-14.756" x2="33.628" y1="0" y2="0" gradientUnits="objectBoundingBox"><stop offset="0%" stop-color="#7d7d7d"></stop><stop offset="49.8%" stop-color="#efefef"></stop><stop offset="100%" stop-color="#7d7d7d"></stop></linearGradient><path fill="url(#v)" d="M404.02 448.4v4.75h-1.22V440.6h2.97q1.59 0 2.32.51.72.51.8 1.69.09.98.09 1.77t-.09 1.63q-.08 1.17-.81 1.68-.73.52-2.35.52zm1.75-6.67h-1.75v5.54h1.71q1.02 0 1.46-.25.45-.25.49-.77.13-1.75 0-3.51-.04-.52-.48-.77-.44-.24-1.43-.24" transform="translate(-405.89 -446.875)"></path></g><g transform="translate(276.077 124.375)"><linearGradient id="w" x1="-17.056" x2="35.401" y1="0" y2="0" gradientUnits="objectBoundingBox"><stop offset="0%" stop-color="#7d7d7d"></stop><stop offset="49.8%" stop-color="#efefef"></stop><stop offset="100%" stop-color="#7d7d7d"></stop></linearGradient><path fill="url(#w)" d="M412.8 453.26q-1.44 0-2.03-.49-.58-.5-.63-1.64-.05-.65-.07-1.45-.02-.79 0-1.6t.07-1.47q.05-1.14.64-1.63t2.02-.49q1.44 0 2.01.49.58.49.62 1.63.06.65.07 1.45.02.79 0 1.6-.01.8-.07 1.47-.04 1.13-.62 1.63-.57.5-2.01.5m0-.99q.8 0 1.15-.19.34-.2.37-.66.08-1.37.08-2.55 0-1.18-.08-2.55-.03-.46-.36-.66-.34-.19-1.16-.19-.83 0-1.17.19-.34.2-.36.66-.08 1.37-.09 2.56 0 1.18.09 2.54.01.46.37.66.36.19 1.16.19" transform="translate(-412.785 -448.875)"></path></g><g transform="translate(282.809 123)"><linearGradient id="x" x1="-18.149" x2="34.585" y1="0" y2="0" gradientUnits="objectBoundingBox"><stop offset="0%" stop-color="#7d7d7d"></stop><stop offset="49.8%" stop-color="#efefef"></stop><stop offset="100%" stop-color="#7d7d7d"></stop></linearGradient><path fill="url(#x)" d="M418.91 453.26q-.99 0-1.47-.44-.49-.44-.51-1.45-.04-.72-.05-1.58-.01-.87 0-1.75.01-.89.05-1.66.02-1.02.52-1.46.5-.43 1.48-.43.73 0 1.15.22.42.22.72.69h.23v-3.66h1.13v11.41h-1.13v-.81h-.25q-.3.44-.72.68-.42.24-1.15.24m.33-.96q1.33 0 1.79-.8v-5.26q-.46-.8-1.78-.8-.62 0-.89.2-.28.2-.29.64-.05 1.32-.04 2.68 0 1.35.04 2.5.02.44.29.64.26.2.88.2" transform="translate(-419.516 -447.5)"></path></g><g transform="translate(289.518 124.375)"><linearGradient id="y" x1="-20.113" x2="35.326" y1="0" y2="0" gradientUnits="objectBoundingBox"><stop offset="0%" stop-color="#7d7d7d"></stop><stop offset="49.8%" stop-color="#efefef"></stop><stop offset="100%" stop-color="#7d7d7d"></stop></linearGradient><path fill="url(#y)" d="M426.16 453.26q-1.41 0-1.96-.46t-.59-1.49q-.02-.28-.03-.61 0-.34.04-.6h1.02q-.01.41-.01.74.01.34.01.58.01.48.34.67.33.18 1.18.18.87 0 1.23-.18.36-.19.38-.67.03-.3.04-.44.01-.15 0-.42-.03-.45-.24-.7-.21-.24-.91-.35l-1.03-.23q-.79-.17-1.22-.43-.43-.25-.61-.66-.18-.41-.21-1.03-.03-.32.04-.7.02-1.06.58-1.52.56-.45 2.03-.45 1.42 0 1.97.44.55.45.6 1.48v.6q-.01.34-.04.6h-1.06q.05-.31.04-.71 0-.39-.02-.61-.01-.47-.32-.64-.31-.18-1.17-.18-.86 0-1.17.18-.31.17-.35.64-.01.22-.02.36-.02.15-.01.4.02.31.09.55.07.23.3.39.23.15.76.23l.98.2q1.08.22 1.57.68.49.47.49 1.4v.41q-.01.22-.03.42-.06 1.03-.64 1.48-.59.45-2.05.45" transform="translate(-426.226 -448.875)"></path></g><g transform="translate(298.677 123.215)"><linearGradient id="z" x1="-30.614" x2="48.16" y1="0" y2="0" gradientUnits="objectBoundingBox"><stop offset="0%" stop-color="#7d7d7d"></stop><stop offset="49.8%" stop-color="#efefef"></stop><stop offset="100%" stop-color="#7d7d7d"></stop></linearGradient><path fill="url(#z)" d="M436.49 453.26q-1.37 0-1.85-.46t-.48-1.49v-5.73h-.84v-.98h.87v-2.43h1.12v2.43h1.93v.98h-1.94v5.85q0 .48.2.67.2.18 1.02.18.33 0 .51-.01t.42-.02v.94q-.21.03-.46.05-.24.02-.5.02" transform="translate(-435.385 -447.715)"></path></g><g transform="translate(304.257 122.945)"><linearGradient id="A" x1="-21.239" x2="31.356" y1="0" y2="0" gradientUnits="objectBoundingBox"><stop offset="0%" stop-color="#7d7d7d"></stop><stop offset="49.8%" stop-color="#efefef"></stop><stop offset="100%" stop-color="#7d7d7d"></stop></linearGradient><path fill="url(#A)" d="M439.5 446.24v6.91h-1.14v-11.41h1.14v3.66h.27q.31-.47.72-.69.4-.22 1.12-.22.99 0 1.47.43.49.44.49 1.46v6.77h-1.13v-6.87q0-.44-.28-.64-.27-.2-.89-.2-1.32 0-1.77.8" transform="translate(-440.965 -447.445)"></path></g><g transform="translate(311.03 124.375)"><linearGradient id="B" x1="-22.53" x2="30.766" y1="0" y2="0" gradientUnits="objectBoundingBox"><stop offset="0%" stop-color="#7d7d7d"></stop><stop offset="49.8%" stop-color="#efefef"></stop><stop offset="100%" stop-color="#7d7d7d"></stop></linearGradient><path fill="url(#B)" d="M447.81 453.26q-1.45 0-2.07-.46-.62-.46-.66-1.49-.04-.65-.05-1.53-.01-.88 0-1.77t.05-1.55q.04-1.06.68-1.52.64-.45 2.05-.45 1.34 0 1.94.44.59.45.65 1.48.02.31.04 1.07.02.77-.05 1.63h-4.21q0 .55.01 1.12 0 .58.03 1.19.01.48.37.67.36.18 1.19.18.81 0 1.15-.18.33-.19.37-.67.02-.48 0-1.32h1.09q.04.26.04.6-.01.33-.03.61-.06 1.03-.62 1.49-.57.46-1.97.46m-1.63-5.08h3.13q.02-.6.02-1.15 0-.54-.03-.74-.04-.44-.38-.63t-1.11-.19q-.85 0-1.22.19-.36.19-.37.63-.03.51-.04.97-.01.47 0 .92" transform="translate(-447.737 -448.875)"></path></g><g transform="translate(321.872 122.38)"><linearGradient id="C" x1="-20.174" x2="24.361" y1="0" y2="0" gradientUnits="objectBoundingBox"><stop offset="0%" stop-color="#7d7d7d"></stop><stop offset="49.8%" stop-color="#efefef"></stop><stop offset="100%" stop-color="#7d7d7d"></stop></linearGradient><path fill="url(#C)" d="M458.6 453.27q-1.72 0-2.45-.52-.73-.52-.77-1.71-.09-2.13-.09-4.17 0-2.03.09-4.17.04-1.18.77-1.7.73-.51 2.45-.51 1.72 0 2.47.51.74.52.75 1.7.05 2.15.05 4.18t-.05 4.16q-.01 1.19-.75 1.71-.75.52-2.47.52m0-1.06q1.09 0 1.53-.22.44-.23.47-.74.12-2.19.1-4.41-.02-2.21-.1-4.34-.03-.52-.47-.74-.45-.22-1.53-.22t-1.53.22q-.44.22-.47.74-.12 2.13-.11 4.34.01 2.22.11 4.41.03.51.47.74.45.22 1.53.22" transform="translate(-458.58 -446.88)"></path></g><g transform="translate(329.342 125.745)"><linearGradient id="D" x1="-24.986" x2="27.748" y1="0" y2="0" gradientUnits="objectBoundingBox"><stop offset="0%" stop-color="#7d7d7d"></stop><stop offset="49.8%" stop-color="#efefef"></stop><stop offset="100%" stop-color="#7d7d7d"></stop></linearGradient><path fill="url(#D)" d="M464.55 452.34V456h-1.14v-11.4h1.14v.8h.24q.3-.47.72-.69.42-.22 1.15-.22 1 0 1.48.43.48.44.5 1.46.03.44.04 1.08.01.64.01 1.35 0 .7-.01 1.37-.01.67-.04 1.19-.02 1.01-.53 1.45-.5.44-1.5.44-.66 0-1.08-.22-.42-.21-.74-.7zm1.75-.04q1.18 0 1.22-.84.07-1.36.05-2.68-.01-1.33-.05-2.5-.02-.44-.28-.64-.27-.2-.89-.2-1.35 0-1.8.8v5.26q.23.43.64.61.41.19 1.11.19" transform="translate(-466.05 -450.245)"></path></g><g transform="translate(335.077 123.215)"><linearGradient id="E" x1="-38.579" x2="40.195" y1="0" y2="0" gradientUnits="objectBoundingBox"><stop offset="0%" stop-color="#7d7d7d"></stop><stop offset="49.8%" stop-color="#efefef"></stop><stop offset="100%" stop-color="#7d7d7d"></stop></linearGradient><path fill="url(#E)" d="M472.9 453.26q-1.38 0-1.85-.46-.48-.46-.48-1.49v-5.73h-.85v-.98h.87v-2.43h1.12v2.43h1.93v.98h-1.94v5.85q0 .48.2.67.2.18 1.02.18.34 0 .52-.01t.41-.02v.94q-.21.03-.45.05-.25.02-.5.02" transform="translate(-471.785 -447.715)"></path></g><g transform="translate(338.842 122.945)"><linearGradient id="F" x1="-56.387" x2="56.264" y1="0" y2="0" gradientUnits="objectBoundingBox"><stop offset="0%" stop-color="#7d7d7d"></stop><stop offset="49.8%" stop-color="#efefef"></stop><stop offset="100%" stop-color="#7d7d7d"></stop></linearGradient><path fill="url(#F)" d="M476.12 441.74v1.27h-1.13v-1.27zm0 2.86v8.55h-1.14v-8.55z" transform="translate(-475.55 -447.445)"></path></g><g transform="translate(345.717 124.32)"><linearGradient id="G" x1="-17.543" x2="16.2" y1="0" y2="0" gradientUnits="objectBoundingBox"><stop offset="0%" stop-color="#7d7d7d"></stop><stop offset="49.8%" stop-color="#efefef"></stop><stop offset="100%" stop-color="#7d7d7d"></stop></linearGradient><path fill="url(#G)" d="M479.11 446.24v6.91h-1.13v-8.55h1.13v.8h.22q.3-.47.7-.69.4-.22 1.1-.22 1.42 0 1.74.98h.24q.29-.46.74-.72.45-.26 1.15-.26.94 0 1.4.43.47.44.47 1.46v6.77h-1.12v-6.87q-.02-.44-.28-.64-.25-.2-.84-.2-1.17 0-1.63.83v6.88h-1.12v-6.87q-.02-.44-.27-.64-.26-.2-.83-.2-1.25 0-1.67.8" transform="translate(-482.425 -448.82)"></path></g><g transform="translate(352.542 122.945)"><linearGradient id="H" x1="-60.658" x2="51.993" y1="0" y2="0" gradientUnits="objectBoundingBox"><stop offset="0%" stop-color="#7d7d7d"></stop><stop offset="49.8%" stop-color="#efefef"></stop><stop offset="100%" stop-color="#7d7d7d"></stop></linearGradient><path fill="url(#H)" d="M489.82 441.74v1.27h-1.13v-1.27zm0 2.86v8.55h-1.14v-8.55z" transform="translate(-489.25 -447.445)"></path></g><g transform="translate(357.022 124.375)"><linearGradient id="I" x1="-34.359" x2="27.973" y1="0" y2="0" gradientUnits="objectBoundingBox"><stop offset="0%" stop-color="#7d7d7d"></stop><stop offset="49.8%" stop-color="#efefef"></stop><stop offset="100%" stop-color="#7d7d7d"></stop></linearGradient><path fill="url(#I)" d="M496.18 452.18v.97h-5.07v-.82l3.99-6.76-3.89.01v-.97l5.14-.01v.84l-4.02 6.74z" transform="translate(-493.73 -448.875)"></path></g><g transform="translate(363.179 124.37)"><linearGradient id="J" x1="-30.156" x2="22.857" y1="0" y2="0" gradientUnits="objectBoundingBox"><stop offset="0%" stop-color="#7d7d7d"></stop><stop offset="49.8%" stop-color="#efefef"></stop><stop offset="100%" stop-color="#7d7d7d"></stop></linearGradient><path fill="url(#J)" d="M499.42 453.25q-1.07 0-1.59-.42-.51-.43-.6-1.32l-.02-.35q-.01-.18.01-.35.06-.78.49-1.31t1.63-.97q.49-.18 1.04-.32.54-.14 1.08-.27v-1.63q0-.43-.32-.63-.33-.21-1.14-.21-.7 0-1.07.18-.36.17-.4.64-.01.22-.01.63 0 .4.01.69h-1.09q-.02-.22-.04-.58-.02-.35.01-.62.04-1.02.66-1.47.62-.45 1.98-.45 1.41 0 1.96.49t.56 1.62v6.55h-1.11v-.81h-.25q-.22.44-.62.68-.41.23-1.17.23m.28-.95q1.27 0 1.75-.76v-2.66q-.42.09-.86.21-.45.12-1.05.32-.71.26-.94.6-.24.35-.28.8l.02.29q0 .15.02.32.06.42.42.65.36.23.92.23" transform="translate(-499.887 -448.87)"></path></g><g transform="translate(369.067 123.215)"><linearGradient id="K" x1="-46.016" x2="32.758" y1="0" y2="0" gradientUnits="objectBoundingBox"><stop offset="0%" stop-color="#7d7d7d"></stop><stop offset="49.8%" stop-color="#efefef"></stop><stop offset="100%" stop-color="#7d7d7d"></stop></linearGradient><path fill="url(#K)" d="M506.88 453.26q-1.37 0-1.85-.46t-.48-1.49v-5.73h-.84v-.98h.87v-2.43h1.12v2.43h1.93v.98h-1.94v5.85q0 .48.2.67.2.18 1.02.18.33 0 .51-.01t.42-.02v.94q-.21.03-.46.05-.24.02-.5.02" transform="translate(-505.775 -447.715)"></path></g><g transform="translate(372.832 122.945)"><linearGradient id="L" x1="-66.981" x2="45.669" y1="0" y2="0" gradientUnits="objectBoundingBox"><stop offset="0%" stop-color="#7d7d7d"></stop><stop offset="49.8%" stop-color="#efefef"></stop><stop offset="100%" stop-color="#7d7d7d"></stop></linearGradient><path fill="url(#L)" d="M510.11 441.74v1.27h-1.13v-1.27zm0 2.86v8.55h-1.14v-8.55z" transform="translate(-509.54 -447.445)"></path></g><g transform="translate(377.837 124.375)"><linearGradient id="M" x1="-31.976" x2="20.481" y1="0" y2="0" gradientUnits="objectBoundingBox"><stop offset="0%" stop-color="#7d7d7d"></stop><stop offset="49.8%" stop-color="#efefef"></stop><stop offset="100%" stop-color="#7d7d7d"></stop></linearGradient><path fill="url(#M)" d="M514.56 453.26q-1.44 0-2.03-.49-.58-.5-.63-1.64-.05-.65-.07-1.45-.02-.79 0-1.6t.07-1.47q.05-1.14.64-1.63t2.02-.49q1.44 0 2.01.49.58.49.62 1.63.06.65.07 1.45.02.79 0 1.6-.01.8-.07 1.47-.04 1.13-.62 1.63-.57.5-2.01.5m0-.99q.8 0 1.15-.19.34-.2.37-.66.08-1.37.08-2.55 0-1.18-.08-2.55-.03-.46-.36-.66-.34-.19-1.16-.19-.83 0-1.17.19-.34.2-.36.66-.08 1.37-.09 2.56 0 1.18.09 2.54.01.46.37.66.36.19 1.16.19" transform="translate(-514.545 -448.875)"></path></g><g transform="translate(384.677 124.32)"><linearGradient id="N" x1="-33.061" x2="19.534" y1="0" y2="0" gradientUnits="objectBoundingBox"><stop offset="0%" stop-color="#7d7d7d"></stop><stop offset="49.8%" stop-color="#efefef"></stop><stop offset="100%" stop-color="#7d7d7d"></stop></linearGradient><path fill="url(#N)" d="M519.92 446.24v6.91h-1.14v-8.55h1.14v.8h.27q.27-.44.72-.68.44-.23 1.12-.23.99 0 1.47.43.49.44.49 1.46v6.77h-1.13v-6.87q0-.44-.28-.64-.27-.2-.89-.2-.61 0-1.08.21-.46.22-.69.59" transform="translate(-521.385 -448.82)"></path></g><g transform="translate(394.657 122.375)"><linearGradient id="O" x1="-38.126" x2="19.966" y1="0" y2="0" gradientUnits="objectBoundingBox"><stop offset="0%" stop-color="#7d7d7d"></stop><stop offset="49.8%" stop-color="#efefef"></stop><stop offset="100%" stop-color="#7d7d7d"></stop></linearGradient><path fill="url(#O)" d="M531.98 441.73v11.42h-1.23v-11.42h-2.4v-1.13h6.03v1.13z" transform="translate(-531.365 -446.875)"></path></g><g transform="translate(401.172 122.945)"><linearGradient id="P" x1="-35.486" x2="17.109" y1="0" y2="0" gradientUnits="objectBoundingBox"><stop offset="0%" stop-color="#7d7d7d"></stop><stop offset="49.8%" stop-color="#efefef"></stop><stop offset="100%" stop-color="#7d7d7d"></stop></linearGradient><path fill="url(#P)" d="M536.41 446.24v6.91h-1.13v-11.41h1.13v3.66h.28q.3-.47.71-.69.41-.22 1.12-.22 1 0 1.48.43.48.44.48 1.46v6.77h-1.12v-6.87q0-.44-.28-.64-.27-.2-.89-.2-1.32 0-1.78.8" transform="translate(-537.88 -447.445)"></path></g><g transform="translate(407.942 124.375)"><linearGradient id="Q" x1="-36.964" x2="16.333" y1="0" y2="0" gradientUnits="objectBoundingBox"><stop offset="0%" stop-color="#7d7d7d"></stop><stop offset="49.8%" stop-color="#efefef"></stop><stop offset="100%" stop-color="#7d7d7d"></stop></linearGradient><path fill="url(#Q)" d="M544.73 453.26q-1.45 0-2.07-.46-.62-.46-.66-1.49-.04-.65-.05-1.53-.02-.88 0-1.77.01-.89.05-1.55.04-1.06.68-1.52.63-.45 2.05-.45 1.33 0 1.93.44.6.45.66 1.48.02.31.04 1.07.01.77-.06 1.63h-4.21q0 .55.01 1.12.01.58.04 1.19.01.48.37.67.36.18 1.18.18t1.16-.18q.33-.19.36-.67.03-.48 0-1.32h1.09q.05.26.04.6 0 .33-.02.61-.06 1.03-.63 1.49-.56.46-1.96.46m-1.64-5.08h3.14q.02-.6.02-1.15 0-.54-.04-.74-.03-.44-.37-.63-.35-.19-1.11-.19-.85 0-1.22.19-.36.19-.37.63-.03.51-.04.97-.01.47-.01.92" transform="translate(-544.65 -448.875)"></path></g><g transform="translate(414.402 125.84)"><linearGradient id="R" x1="-40.793" x2="16.55" y1="0" y2="0" gradientUnits="objectBoundingBox"><stop offset="0%" stop-color="#7d7d7d"></stop><stop offset="49.8%" stop-color="#efefef"></stop><stop offset="100%" stop-color="#7d7d7d"></stop></linearGradient><path fill="url(#R)" d="M549.59 456.08q-.28 0-.67-.03-.39-.02-.65-.05v-.98q.55.05 1.28.05.79 0 1.06-.19.28-.19.38-.66l.25-1.07h-1.18l-1.59-8.55h1.16l.59 4.08.68 3.5h.54l.72-3.5.62-4.08h1.17l-1.85 9.53q-.16 1.03-.7 1.49-.54.46-1.81.46" transform="translate(-551.11 -450.34)"></path></g><g transform="translate(425.001 122.375)"><linearGradient id="S" x1="-33.876" x2="11.785" y1="0" y2="0" gradientUnits="objectBoundingBox"><stop offset="0%" stop-color="#7d7d7d"></stop><stop offset="49.8%" stop-color="#efefef"></stop><stop offset="100%" stop-color="#7d7d7d"></stop></linearGradient><path fill="url(#S)" d="M561.63 453.15h-3.08V440.6h3.12q1.64 0 2.37.53.74.53.76 1.75.05 1.42.06 2.7.01 1.29 0 2.57-.01 1.28-.06 2.72-.02 1.22-.76 1.75t-2.41.53m.04-11.42h-1.89v10.3h1.85q1.03 0 1.49-.26.45-.25.46-.77.13-4.12 0-8.26-.01-.52-.46-.77-.45-.24-1.45-.24" transform="translate(-561.709 -446.875)"></path></g><g transform="translate(432.25 124.375)"><linearGradient id="T" x1="-40.583" x2="12.714" y1="0" y2="0" gradientUnits="objectBoundingBox"><stop offset="0%" stop-color="#7d7d7d"></stop><stop offset="49.8%" stop-color="#efefef"></stop><stop offset="100%" stop-color="#7d7d7d"></stop></linearGradient><path fill="url(#T)" d="M569.03 453.26q-1.45 0-2.07-.46-.62-.46-.66-1.49-.04-.65-.05-1.53-.01-.88 0-1.77t.05-1.55q.04-1.06.68-1.52.64-.45 2.05-.45 1.34 0 1.93.44.6.45.66 1.48.02.31.04 1.07.02.77-.05 1.63h-4.21v1.12q.01.58.04 1.19.01.48.37.67.36.18 1.19.18.81 0 1.15-.18.33-.19.37-.67.02-.48 0-1.32h1.09q.04.26.04.6-.01.33-.03.61-.06 1.03-.62 1.49-.57.46-1.97.46m-1.63-5.08h3.13q.02-.6.02-1.15 0-.54-.03-.74-.04-.44-.38-.63t-1.11-.19q-.85 0-1.22.19-.36.19-.37.63-.03.51-.04.97-.01.47 0 .92" transform="translate(-568.957 -448.875)"></path></g><g transform="translate(438.808 124.375)"><linearGradient id="U" x1="-43.223" x2="12.215" y1="0" y2="0" gradientUnits="objectBoundingBox"><stop offset="0%" stop-color="#7d7d7d"></stop><stop offset="49.8%" stop-color="#efefef"></stop><stop offset="100%" stop-color="#7d7d7d"></stop></linearGradient><path fill="url(#U)" d="M575.46 453.26q-1.42 0-1.97-.46t-.59-1.49q-.02-.28-.02-.61-.01-.34.03-.6h1.03q-.02.41-.02.74.01.34.02.58 0 .48.33.67.33.18 1.19.18.87 0 1.22-.18.36-.19.38-.67.03-.3.04-.44.01-.15 0-.42-.03-.45-.24-.7-.21-.24-.91-.35l-1.03-.23q-.79-.17-1.22-.43-.43-.25-.61-.66-.17-.41-.21-1.03-.03-.32.04-.7.02-1.06.58-1.52.56-.45 2.03-.45 1.42 0 1.97.44.55.45.6 1.48v.6q-.01.34-.03.6H577q.05-.31.04-.71 0-.39-.02-.61-.01-.47-.32-.64-.31-.18-1.17-.18-.86 0-1.17.18-.31.17-.35.64 0 .22-.02.36-.02.15-.01.4.03.31.09.55.07.23.3.39.23.15.76.23l.98.2q1.08.22 1.57.68.49.47.49 1.4v.41q-.01.22-.03.42-.06 1.03-.64 1.48-.59.45-2.04.45" transform="translate(-575.515 -448.875)"></path></g><g transform="translate(445.42 124.375)"><linearGradient id="V" x1="-42.545" x2="10.752" y1="0" y2="0" gradientUnits="objectBoundingBox"><stop offset="0%" stop-color="#7d7d7d"></stop><stop offset="49.8%" stop-color="#efefef"></stop><stop offset="100%" stop-color="#7d7d7d"></stop></linearGradient><path fill="url(#V)" d="M582.21 453.26q-1.45 0-2.07-.46-.62-.46-.67-1.49-.03-.65-.05-1.53-.01-.88 0-1.77.02-.89.05-1.55.05-1.06.68-1.52.64-.45 2.06-.45 1.33 0 1.93.44.6.45.66 1.48.02.31.03 1.07.02.77-.05 1.63h-4.21q0 .55.01 1.12.01.58.03 1.19.01.48.37.67.36.18 1.19.18.82 0 1.15-.18.34-.19.37-.67.03-.48 0-1.32h1.09q.04.26.04.6 0 .33-.02.61-.06 1.03-.63 1.49-.57.46-1.96.46m-1.64-5.08h3.14q.02-.6.02-1.15 0-.54-.04-.74-.03-.44-.38-.63-.34-.19-1.1-.19-.86 0-1.22.19-.37.19-.38.63-.02.51-.03.97-.02.47-.01.92" transform="translate(-582.127 -448.875)"></path></g><g transform="translate(451.887 124.32)"><linearGradient id="W" x1="-49.068" x2="11.115" y1="0" y2="0" gradientUnits="objectBoundingBox"><stop offset="0%" stop-color="#7d7d7d"></stop><stop offset="49.8%" stop-color="#efefef"></stop><stop offset="100%" stop-color="#7d7d7d"></stop></linearGradient><path fill="url(#W)" d="M587.44 446.24v6.91h-1.14v-8.55h1.14v.8h.24q.23-.44.61-.68.38-.23.94-.23.84 0 1.25.44.41.44.41 1.53 0 .24-.02.57-.02.32-.05.58h-1.09q.02-.09.02-.31.01-.22.01-.44v-.3q0-.65-.22-.88-.22-.24-.7-.24-1.03 0-1.4.8" transform="translate(-588.595 -448.82)"></path></g><g transform="translate(457.832 124.375)"><linearGradient id="X" x1="-47.744" x2="9.6" y1="0" y2="0" gradientUnits="objectBoundingBox"><stop offset="0%" stop-color="#7d7d7d"></stop><stop offset="49.8%" stop-color="#efefef"></stop><stop offset="100%" stop-color="#7d7d7d"></stop></linearGradient><path fill="url(#X)" d="m597.39 444.6-1.71 8.55h-2.37l-1.62-8.55h1.18l.66 4.3.63 3.28h.68l.65-3.28.72-4.3z" transform="translate(-594.54 -448.875)"></path></g><g transform="translate(464.342 124.375)"><linearGradient id="Y" x1="-45.363" x2="7.934" y1="0" y2="0" gradientUnits="objectBoundingBox"><stop offset="0%" stop-color="#7d7d7d"></stop><stop offset="49.8%" stop-color="#efefef"></stop><stop offset="100%" stop-color="#7d7d7d"></stop></linearGradient><path fill="url(#Y)" d="M601.13 453.26q-1.45 0-2.07-.46-.62-.46-.67-1.49-.03-.65-.04-1.53-.02-.88 0-1.77.01-.89.04-1.55.05-1.06.69-1.52.63-.45 2.05-.45 1.33 0 1.93.44.6.45.66 1.48.02.31.04 1.07.01.77-.06 1.63h-4.21q0 .55.01 1.12.01.58.04 1.19.01.48.37.67.36.18 1.18.18t1.15-.18q.34-.19.37-.67.03-.48 0-1.32h1.09q.05.26.04.6 0 .33-.02.61-.06 1.03-.63 1.49-.56.46-1.96.46m-1.64-5.08h3.14q.02-.6.02-1.15 0-.54-.04-.74-.03-.44-.37-.63-.35-.19-1.11-.19-.85 0-1.22.19-.36.19-.37.63-.03.51-.04.97-.02.47-.01.92" transform="translate(-601.05 -448.875)"></path></g><g transform="translate(469.162 127.865)"><linearGradient id="Z" x1="-104.18" x2="16.827" y1="0" y2="0" gradientUnits="objectBoundingBox"><stop offset="0%" stop-color="#7d7d7d"></stop><stop offset="49.8%" stop-color="#efefef"></stop><stop offset="100%" stop-color="#7d7d7d"></stop></linearGradient><path fill="url(#Z)" d="M606.65 451.58v1.57h-1.56v-1.57z" transform="translate(-605.87 -452.365)"></path></g></svg></svg>