<svg xmlns="http://www.w3.org/2000/svg" version="1.1" xmlns:xlink="http://www.w3.org/1999/xlink" width="1500" height="151" viewBox="0 0 1500 151"><svg xml:space="preserve" width="1500" height="151" data-version="2" data-id="lg_0iZP7VxUtLDLAdM7OY" viewBox="0 0 634 151" x="0" y="0"><rect width="100%" height="100%" fill="transparent"></rect><g transform="translate(109.35 47.17)scale(1.8277)"><linearGradient id="a" x1="0" x2="1" y1="0" y2="0" gradientUnits="objectBoundingBox"><stop offset="0%" stop-color="#9c7945"></stop><stop offset="49.8%" stop-color="#faf3aa"></stop><stop offset="100%" stop-color="#9c7945"></stop></linearGradient><path fill="url(#a)" d="M81 10c-5.5 0-10 4.5-10 10 0 1.4.3 2.6.8 3.8L54.5 41.1c-1.4-.7-2.9-1.1-4.5-1.1-5.5 0-10 4.5-10 10s4.5 10 10 10a10.03 10.03 0 0 0 7.7-16.4l16.4-16.4c1.8 1.7 4.2 2.8 6.9 2.8 5.5 0 10-4.5 10-10s-4.5-10-10-10M50 56c-3.3 0-6-2.7-6-6s2.7-6 6-6 6 2.7 6 6-2.7 6-6 6m31-30c-3.3 0-6-2.7-6-6s2.7-6 6-6 6 2.7 6 6-2.7 6-6 6" transform="translate(-65.5 -35)"></path></g><g transform="translate(81.02 19.75)scale(1.8277)"><linearGradient id="b" x1="0" x2="1" y1="0" y2="0" gradientUnits="objectBoundingBox"><stop offset="0%" stop-color="#9c7945"></stop><stop offset="49.8%" stop-color="#faf3aa"></stop><stop offset="100%" stop-color="#9c7945"></stop></linearGradient><path fill="url(#b)" d="M50 30c5.5 0 10-4.5 10-10s-4.5-10-10-10-10 4.5-10 10 4.5 10 10 10m0-16c3.3 0 6 2.7 6 6s-2.7 6-6 6-6-2.7-6-6 2.7-6 6-6" transform="translate(-50 -20)"></path></g><g transform="translate(137.68 74.59)scale(1.8277)"><linearGradient id="c" x1="0" x2="1" y1="0" y2="0" gradientUnits="objectBoundingBox"><stop offset="0%" stop-color="#9c7945"></stop><stop offset="49.8%" stop-color="#faf3aa"></stop><stop offset="100%" stop-color="#9c7945"></stop></linearGradient><path fill="url(#c)" d="M81 40c-5.5 0-10 4.5-10 10s4.5 10 10 10 10-4.5 10-10-4.5-10-10-10m0 16c-3.3 0-6-2.7-6-6s2.7-6 6-6 6 2.7 6 6-2.7 6-6 6" transform="translate(-81 -50)"></path></g><g transform="translate(24.36 129.42)scale(1.8277)"><linearGradient id="d" x1="0" x2="1" y1="0" y2="0" gradientUnits="objectBoundingBox"><stop offset="0%" stop-color="#9c7945"></stop><stop offset="49.8%" stop-color="#faf3aa"></stop><stop offset="100%" stop-color="#9c7945"></stop></linearGradient><path fill="url(#d)" d="M19 70c-5.5 0-10 4.5-10 10s4.5 10 10 10 10-4.5 10-10-4.5-10-10-10m0 16c-3.3 0-6-2.7-6-6s2.7-6 6-6 6 2.7 6 6-2.7 6-6 6" transform="translate(-19 -80)"></path></g><g transform="translate(81.02 74.59)scale(1.8277)"><linearGradient id="e" x1="0" x2="1" y1="0" y2="0" gradientUnits="objectBoundingBox"><stop offset="0%" stop-color="#9c7945"></stop><stop offset="49.8%" stop-color="#faf3aa"></stop><stop offset="100%" stop-color="#9c7945"></stop></linearGradient><path fill="url(#e)" d="M81 70c-4.8 0-8.9 3.4-9.8 8H59.8c-.9-4.6-5-8-9.8-8-3.1 0-5.9 1.4-7.7 3.7L25.8 57.3A9.98 9.98 0 0 0 21 40.2V29.8c4.6-.9 8-5 8-9.8 0-5.5-4.5-10-10-10S9 14.5 9 20c0 4.8 3.4 8.9 8 9.8v10.4c-4.6.9-8 5-8 9.8 0 5.5 4.5 10 10 10q1.8 0 3.3-.6l18 18c-.2.9-.3 1.7-.3 2.6 0 5.5 4.5 10 10 10 4.8 0 8.9-3.4 9.8-8h11.4c.9 4.6 5 8 9.8 8 5.5 0 10-4.5 10-10s-4.5-10-10-10M13 20c0-3.3 2.7-6 6-6s6 2.7 6 6-2.7 6-6 6-6-2.7-6-6m0 30c0-3.3 2.7-6 6-6s6 2.7 6 6-2.7 6-6 6-6-2.7-6-6m37 36c-3.3 0-6-2.7-6-6s2.7-6 6-6 6 2.7 6 6-2.7 6-6 6m31 0c-3.3 0-6-2.7-6-6s2.7-6 6-6 6 2.7 6 6-2.7 6-6 6" transform="translate(-50 -50)"></path></g><g transform="translate(242.75 71.2)"><linearGradient id="f" x1="0" x2="6.05" y1="0" y2="0" gradientUnits="objectBoundingBox"><stop offset="0%" stop-color="#9c7945"></stop><stop offset="49.8%" stop-color="#faf3aa"></stop><stop offset="100%" stop-color="#9c7945"></stop></linearGradient><path fill="url(#f)" d="M304.28 421.62q-2.45 0-4.43-1.19-1.98-1.19-3.13-3.17-1.16-1.98-1.16-4.35v-34.35q0-2.45 1.16-4.43 1.15-1.98 3.13-3.16 1.98-1.19 4.43-1.19h34.92q2.37 0 4.35 1.19 1.98 1.18 3.17 3.16 1.19 1.98 1.19 4.43v34.35q0 2.37-1.19 4.35-1.19 1.98-3.17 3.17t-4.35 1.19zM342 382.88l-39.81 32.83h37.01q1.15 0 1.98-.82.82-.83.82-1.98zm-40.53-4.32v30.03l39.74-32.84h-36.93q-1.16 0-1.98.83-.83.83-.83 1.98" transform="translate(-321.74 -395.7)"></path></g><g transform="translate(302.48 71.23)"><linearGradient id="g" x1="-1.05" x2="5.38" y1="0" y2="0" gradientUnits="objectBoundingBox"><stop offset="0%" stop-color="#9c7945"></stop><stop offset="49.8%" stop-color="#faf3aa"></stop><stop offset="100%" stop-color="#9c7945"></stop></linearGradient><path fill="url(#g)" d="M361.37 421.62h-5.83v-51.77h43.2q2.38 0 4.36 1.19 1.98 1.19 3.13 3.13t1.15 4.32v15.19q0 2.38-1.15 4.32-1.15 1.95-3.13 3.13-1.98 1.19-4.36 1.19h-37.37zm2.81-25.2h34.56q1.15 0 1.98-.79.83-.8.83-1.95v-15.19q0-1.15-.83-1.98-.83-.83-1.98-.83h-34.56q-1.15 0-1.98.83-.83.83-.83 1.98v15.19q0 1.15.83 1.95.83.79 1.98.79" transform="translate(-381.46 -395.74)"></path></g><g transform="translate(356.84 71.2)"><linearGradient id="h" x1="-2.14" x2="4.61" y1="0" y2="0" gradientUnits="objectBoundingBox"><stop offset="0%" stop-color="#9c7945"></stop><stop offset="49.8%" stop-color="#faf3aa"></stop><stop offset="100%" stop-color="#9c7945"></stop></linearGradient><path fill="url(#h)" d="M438.77 421.62h-5.83v-46.01H409.9v-5.83h51.84v5.83h-22.97z" transform="translate(-435.82 -395.7)"></path></g><g transform="translate(391.83 71.2)"><linearGradient id="i" x1="-11.14" x2="15.34" y1="0" y2="0" gradientUnits="objectBoundingBox"><stop offset="0%" stop-color="#9c7945"></stop><stop offset="49.8%" stop-color="#faf3aa"></stop><stop offset="100%" stop-color="#9c7945"></stop></linearGradient><path fill="url(#i)" d="M473.76 421.62h-5.9v-51.84h5.9z" transform="translate(-470.81 -395.7)"></path></g><g transform="translate(428.37 71.2)"><linearGradient id="j" x1="-3.26" x2="3.12" y1="0" y2="0" gradientUnits="objectBoundingBox"><stop offset="0%" stop-color="#9c7945"></stop><stop offset="49.8%" stop-color="#faf3aa"></stop><stop offset="100%" stop-color="#9c7945"></stop></linearGradient><path fill="url(#j)" d="M488.52 421.62h-5.9v-51.84h5.9v22.97h16.71l19.29-22.97h7.49v.07l-21.67 25.85 21.74 25.85v.07h-7.56l-19.29-22.97h-16.71z" transform="translate(-507.35 -395.7)"></path></g><g transform="translate(486.73 71.2)"><linearGradient id="k" x1="-4.1" x2="2" y1="0" y2="0" gradientUnits="objectBoundingBox"><stop offset="0%" stop-color="#9c7945"></stop><stop offset="49.8%" stop-color="#faf3aa"></stop><stop offset="100%" stop-color="#9c7945"></stop></linearGradient><path fill="url(#k)" d="M548.43 421.62q-2.38 0-4.36-1.15-1.98-1.16-3.13-3.14-1.15-1.98-1.15-4.35v-43.2h5.83v43.2q0 1.15.83 1.98.83.83 1.98.83h34.56q1.15 0 1.98-.83.83-.83.83-1.98v-43.2h5.83v43.2q0 2.37-1.15 4.35-1.16 1.98-3.14 3.14-1.98 1.15-4.35 1.15z" transform="translate(-565.71 -395.7)"></path></g><g transform="translate(546.7 71.2)"><linearGradient id="l" x1="-5.08" x2=".99" y1="0" y2="0" gradientUnits="objectBoundingBox"><stop offset="0%" stop-color="#9c7945"></stop><stop offset="49.8%" stop-color="#faf3aa"></stop><stop offset="100%" stop-color="#9c7945"></stop></linearGradient><path fill="url(#l)" d="M599.76 421.62v-51.84h40.97q2.38 0 4.36 1.15 1.98 1.15 3.13 3.13t1.15 4.36v11.01q0 1.01-.25 1.98-.25.98-.68 1.84 1.58 2.38 2.37 4.1.79 1.73.79 3.53v12.1q0 2.37-1.15 4.35-1.15 1.98-3.13 3.14-1.98 1.15-4.36 1.15zm8.64-5.83h34.56q1.16 0 1.98-.83.83-.83.83-1.98v-12.1q0-1.15-.83-1.98-.82-.83-1.98-.83H608.4q-1.15 0-1.98.83-.82.83-.82 1.98v12.1q0 1.15.82 1.98.83.83 1.98.83m0-23.55h32.33q1.15 0 1.95-.83.79-.82.79-1.98v-11.01q0-1.15-.79-1.98-.8-.83-1.95-.83H608.4q-1.15 0-1.98.83-.82.83-.82 1.98v11.01q0 1.16.82 1.98.83.83 1.98.83" transform="translate(-625.68 -395.7)"></path></g><g transform="translate(604.27 71.2)"><linearGradient id="m" x1="-6.6" x2=".08" y1="0" y2="0" gradientUnits="objectBoundingBox"><stop offset="0%" stop-color="#9c7945"></stop><stop offset="49.8%" stop-color="#faf3aa"></stop><stop offset="100%" stop-color="#9c7945"></stop></linearGradient><path fill="url(#m)" d="M706.9 421.62h-47.3v-51.84h47.3v5.83h-41.47v17.14h33.33v5.9h-33.33v17.14h41.47z" transform="translate(-683.25 -395.7)"></path></g><g transform="translate(274.26 121.41)"><linearGradient id="n" x1="-5.63" x2="35.74" y1="0" y2="0" gradientUnits="objectBoundingBox"><stop offset="0%" stop-color="#9c7945"></stop><stop offset="49.8%" stop-color="#faf3aa"></stop><stop offset="100%" stop-color="#9c7945"></stop></linearGradient><path fill="url(#n)" d="M356.12 450.23h-5.76q-.4 0-.73-.19-.33-.19-.52-.52t-.19-.73v-5.76q0-.4.19-.73.19-.33.52-.52t.73-.19h5.76q.39 0 .72.19.33.19.53.52.19.33.19.73v.35h-.97v-.35q0-.19-.14-.33t-.33-.14h-5.76q-.19 0-.33.14t-.14.33v5.76q0 .19.14.33t.33.14h5.76q.19 0 .33-.14t.14-.33v-2.14h-2.14v-.98h3.11v3.12q0 .4-.19.73-.2.33-.53.52t-.72.19" transform="translate(-353.24 -445.91)"></path></g><g transform="translate(280.34 121.11)"><linearGradient id="o" x1="-26.45" x2="141.63" y1="0" y2="0" gradientUnits="objectBoundingBox"><stop offset="0%" stop-color="#9c7945"></stop><stop offset="49.8%" stop-color="#faf3aa"></stop><stop offset="100%" stop-color="#9c7945"></stop></linearGradient><path fill="url(#o)" d="M359.81 450.23h-.98v-6.96h.98zm0-8.26h-.98v-.98h.98z" transform="translate(-359.32 -445.61)"></path></g><g transform="translate(286.39 122.25)"><linearGradient id="p" x1="-7.23" x2="36.29" y1="0" y2="0" gradientUnits="objectBoundingBox"><stop offset="0%" stop-color="#9c7945"></stop><stop offset="49.8%" stop-color="#faf3aa"></stop><stop offset="100%" stop-color="#9c7945"></stop></linearGradient><path fill="url(#p)" d="M365.93 450.23h-1.14l-3.84-6.96h1.16l3.26 6 3.26-6h1.16z" transform="translate(-365.37 -446.75)"></path></g><g transform="translate(295.36 122.25)"><linearGradient id="q" x1="-9.39" x2="40.43" y1="0" y2="0" gradientUnits="objectBoundingBox"><stop offset="0%" stop-color="#9c7945"></stop><stop offset="49.8%" stop-color="#faf3aa"></stop><stop offset="100%" stop-color="#9c7945"></stop></linearGradient><path fill="url(#q)" d="M372.25 450.23q-.4 0-.73-.2-.33-.2-.53-.53t-.2-.72v-4.06q0-.39.2-.72.2-.33.53-.53t.73-.2h4.17q.41 0 .74.2t.53.53q.2.33.2.72v2.52h-6.11v1.54q0 .19.14.33.13.14.33.14h5.64v.98zm-.47-5.51v1.54h5.11v-1.54q0-.19-.14-.33t-.33-.14h-4.17q-.2 0-.33.14-.14.14-.14.33" transform="translate(-374.34 -446.75)"></path></g><g transform="translate(307.6 121.41)"><linearGradient id="r" x1="-9.26" x2="33.37" y1="0" y2="0" gradientUnits="objectBoundingBox"><stop offset="0%" stop-color="#9c7945"></stop><stop offset="49.8%" stop-color="#faf3aa"></stop><stop offset="100%" stop-color="#9c7945"></stop></linearGradient><path fill="url(#r)" d="M387.08 450.23h-.97v-3.25l-3.98-5.39h1.12l3.35 4.22 3.31-4.22h1.14l-3.97 5.39z" transform="translate(-386.59 -445.91)"></path></g><g transform="translate(316.6 122.25)"><linearGradient id="s" x1="-11.95" x2="37.87" y1="0" y2="0" gradientUnits="objectBoundingBox"><stop offset="0%" stop-color="#9c7945"></stop><stop offset="49.8%" stop-color="#faf3aa"></stop><stop offset="100%" stop-color="#9c7945"></stop></linearGradient><path fill="url(#s)" d="M393.49 450.23q-.4 0-.73-.2-.33-.2-.53-.53t-.2-.72v-4.06q0-.39.2-.72.2-.33.53-.53t.73-.2h4.17q.41 0 .74.2t.53.53q.2.33.2.72v4.06q0 .39-.2.72-.2.33-.53.53t-.74.2zm0-.98h4.17q.19 0 .33-.14t.14-.33v-4.06q0-.19-.14-.33t-.33-.14h-4.17q-.2 0-.33.14-.14.14-.14.33v4.06q0 .19.14.33.13.14.33.14" transform="translate(-395.58 -446.75)"></path></g><g transform="translate(324.92 122.25)"><linearGradient id="t" x1="-12.89" x2="36.71" y1="0" y2="0" gradientUnits="objectBoundingBox"><stop offset="0%" stop-color="#9c7945"></stop><stop offset="49.8%" stop-color="#faf3aa"></stop><stop offset="100%" stop-color="#9c7945"></stop></linearGradient><path fill="url(#t)" d="M401.81 450.23q-.39 0-.72-.2-.33-.2-.53-.53t-.2-.72v-5.51h.99v5.51q0 .19.13.33.14.14.33.14h4.18q.19 0 .34-.14.14-.14.14-.33v-5.51h.98v5.51q0 .39-.19.72-.2.33-.53.53t-.74.2z" transform="translate(-403.9 -446.75)"></path></g><g transform="translate(332.39 122.25)"><linearGradient id="u" x1="-18.86" x2="48.83" y1="0" y2="0" gradientUnits="objectBoundingBox"><stop offset="0%" stop-color="#9c7945"></stop><stop offset="49.8%" stop-color="#faf3aa"></stop><stop offset="100%" stop-color="#9c7945"></stop></linearGradient><path fill="url(#u)" d="M409.67 450.23h-.98v-5.51q0-.39.2-.72.2-.33.53-.53t.72-.2h3.91v.98h-3.91q-.19 0-.33.14t-.14.33z" transform="translate(-411.37 -446.75)"></path></g><g transform="translate(343.49 121.42)"><linearGradient id="v" x1="-13.2" x2="30.26" y1="0" y2="0" gradientUnits="objectBoundingBox"><stop offset="0%" stop-color="#9c7945"></stop><stop offset="49.8%" stop-color="#faf3aa"></stop><stop offset="100%" stop-color="#9c7945"></stop></linearGradient><path fill="url(#v)" d="M419.12 450.23h-.97v-8.63h7.2q.39 0 .72.2.33.2.52.52.2.33.2.72v2.53q0 .4-.2.72-.19.33-.52.53-.33.19-.72.19h-6.23zm.47-4.2h5.76q.19 0 .33-.13.13-.13.13-.33v-2.53q0-.19-.13-.33-.14-.14-.33-.14h-5.76q-.2 0-.33.14-.14.14-.14.33v2.53q0 .2.14.33.13.13.33.13" transform="translate(-422.47 -445.92)"></path></g><g transform="translate(352.14 122.25)"><linearGradient id="w" x1="-16.23" x2="33.59" y1="0" y2="0" gradientUnits="objectBoundingBox"><stop offset="0%" stop-color="#9c7945"></stop><stop offset="49.8%" stop-color="#faf3aa"></stop><stop offset="100%" stop-color="#9c7945"></stop></linearGradient><path fill="url(#w)" d="M429.03 450.23q-.4 0-.73-.2-.33-.2-.52-.53-.2-.33-.2-.72v-4.06q0-.39.2-.72.19-.33.52-.53t.73-.2h4.18q.4 0 .73.2.33.2.53.53t.2.72v4.06q0 .39-.2.72-.2.33-.53.53t-.73.2zm0-.98h4.18q.19 0 .33-.14.13-.14.13-.33v-4.06q0-.19-.13-.33-.14-.14-.33-.14h-4.18q-.19 0-.33.14t-.14.33v4.06q0 .19.14.33t.33.14" transform="translate(-431.13 -446.75)"></path></g><g transform="translate(360.11 121.11)"><linearGradient id="x" x1="-17.88" x2="33.85" y1="0" y2="0" gradientUnits="objectBoundingBox"><stop offset="0%" stop-color="#9c7945"></stop><stop offset="49.8%" stop-color="#faf3aa"></stop><stop offset="100%" stop-color="#9c7945"></stop></linearGradient><path fill="url(#x)" d="M437.01 450.23q-.41 0-.74-.2t-.53-.53q-.19-.33-.19-.72v-4.06q0-.39.19-.72.2-.33.53-.53t.74-.2h4.64v-2.28h.99v9.24zm0-.98h4.18q.19 0 .33-.14.13-.14.13-.33v-4.06q0-.19-.13-.33-.14-.14-.33-.14h-4.18q-.19 0-.33.14t-.14.33v4.06q0 .19.14.33t.33.14" transform="translate(-439.1 -445.61)"></path></g><g transform="translate(368.41 122.25)"><linearGradient id="y" x1="-18.35" x2="31.91" y1="0" y2="0" gradientUnits="objectBoundingBox"><stop offset="0%" stop-color="#9c7945"></stop><stop offset="49.8%" stop-color="#faf3aa"></stop><stop offset="100%" stop-color="#9c7945"></stop></linearGradient><path fill="url(#y)" d="M445.3 450.23q-.39 0-.72-.2-.33-.2-.53-.53t-.2-.72v-.1h.98v.1q0 .19.14.33t.33.14h4.18q.19 0 .33-.14t.14-.33v-1.07q0-.19-.14-.33t-.33-.14h-4.18q-.39 0-.72-.2-.33-.19-.53-.52t-.2-.73v-1.07q0-.39.2-.72.2-.33.53-.53t.72-.2h4.18q.41 0 .74.2t.52.53q.2.33.2.72v.1h-.99v-.1q0-.19-.14-.33t-.33-.14h-4.18q-.19 0-.33.14t-.14.33v1.07q0 .19.14.33t.33.14h4.18q.41 0 .74.2.33.19.52.52.2.33.2.73v1.07q0 .39-.2.72-.19.33-.52.53t-.74.2z" transform="translate(-447.4 -446.75)"></path></g><g transform="translate(378.42 121.11)"><linearGradient id="z" x1="-33.05" x2="51.73" y1="0" y2="0" gradientUnits="objectBoundingBox"><stop offset="0%" stop-color="#9c7945"></stop><stop offset="49.8%" stop-color="#faf3aa"></stop><stop offset="100%" stop-color="#9c7945"></stop></linearGradient><path fill="url(#z)" d="M456.86 450.23q-.41 0-.74-.2t-.52-.53q-.19-.33-.19-.72v-7.79h.98v2.28h3.01v.98h-3.01v4.53q0 .19.14.33t.33.14h2.54v.98z" transform="translate(-457.4 -445.61)"></path></g><g transform="translate(384.9 121.11)"><linearGradient id="A" x1="-20.9" x2="30.75" y1="0" y2="0" gradientUnits="objectBoundingBox"><stop offset="0%" stop-color="#9c7945"></stop><stop offset="49.8%" stop-color="#faf3aa"></stop><stop offset="100%" stop-color="#9c7945"></stop></linearGradient><path fill="url(#A)" d="M461.32 450.23h-.98v-9.24h.98v2.28h4.66q.39 0 .72.2.33.2.53.53t.2.72v5.51h-.98v-5.51q0-.19-.14-.33t-.33-.14h-4.18q-.19 0-.33.14-.15.14-.15.33z" transform="translate(-463.88 -445.61)"></path></g><g transform="translate(392.88 122.25)"><linearGradient id="B" x1="-21.14" x2="28.68" y1="0" y2="0" gradientUnits="objectBoundingBox"><stop offset="0%" stop-color="#9c7945"></stop><stop offset="49.8%" stop-color="#faf3aa"></stop><stop offset="100%" stop-color="#9c7945"></stop></linearGradient><path fill="url(#B)" d="M469.77 450.23q-.4 0-.73-.2-.33-.2-.52-.53-.2-.33-.2-.72v-4.06q0-.39.2-.72.19-.33.52-.53t.73-.2h4.18q.4 0 .73.2.33.2.53.53t.2.72v2.52h-6.11v1.54q0 .19.14.33t.33.14h5.64v.98zm-.47-5.51v1.54h5.11v-1.54q0-.19-.13-.33-.14-.14-.33-.14h-4.18q-.19 0-.33.14t-.14.33" transform="translate(-471.87 -446.75)"></path></g><g transform="translate(405.26 121.41)"><linearGradient id="C" x1="-18.83" x2="22.64" y1="0" y2="0" gradientUnits="objectBoundingBox"><stop offset="0%" stop-color="#9c7945"></stop><stop offset="49.8%" stop-color="#faf3aa"></stop><stop offset="100%" stop-color="#9c7945"></stop></linearGradient><path fill="url(#C)" d="M487.12 450.23h-5.76q-.39 0-.72-.19-.33-.19-.53-.52-.19-.33-.19-.73v-5.76q0-.4.19-.73.2-.33.53-.52t.72-.19h5.76q.4 0 .73.19.33.19.52.52t.19.73v5.76q0 .4-.19.73-.19.33-.52.52t-.73.19m-5.76-.97h5.76q.19 0 .33-.14t.14-.33v-5.76q0-.19-.14-.33t-.33-.14h-5.76q-.19 0-.33.14t-.14.33v5.76q0 .19.14.33t.33.14" transform="translate(-484.24 -445.91)"></path></g><g transform="translate(414.42 123.63)"><linearGradient id="D" x1="-24.73" x2="27.24" y1="0" y2="0" gradientUnits="objectBoundingBox"><stop offset="0%" stop-color="#9c7945"></stop><stop offset="49.8%" stop-color="#faf3aa"></stop><stop offset="100%" stop-color="#9c7945"></stop></linearGradient><path fill="url(#D)" d="M490.84 452.99h-.98v-9.72h5.64q.39 0 .72.2.33.2.53.53t.2.72v4.06q0 .39-.2.72-.2.33-.53.53t-.72.2h-4.66zm.48-3.74h4.18q.19 0 .33-.14t.14-.33v-4.06q0-.19-.14-.33t-.33-.14h-4.18q-.19 0-.33.14-.15.14-.15.33v4.06q0 .19.15.33.14.14.33.14" transform="translate(-493.4 -448.13)"></path></g><g transform="translate(420.83 121.11)"><linearGradient id="E" x1="-41.66" x2="43.11" y1="0" y2="0" gradientUnits="objectBoundingBox"><stop offset="0%" stop-color="#9c7945"></stop><stop offset="49.8%" stop-color="#faf3aa"></stop><stop offset="100%" stop-color="#9c7945"></stop></linearGradient><path fill="url(#E)" d="M499.27 450.23q-.41 0-.74-.2t-.52-.53q-.2-.33-.2-.72v-7.79h.99v2.28h3.01v.98h-3.01v4.53q0 .19.14.33.13.14.33.14h2.54v.98z" transform="translate(-499.81 -445.61)"></path></g><g transform="translate(424.23 121.11)"><linearGradient id="F" x1="-84.1" x2="83.98" y1="0" y2="0" gradientUnits="objectBoundingBox"><stop offset="0%" stop-color="#9c7945"></stop><stop offset="49.8%" stop-color="#faf3aa"></stop><stop offset="100%" stop-color="#9c7945"></stop></linearGradient><path fill="url(#F)" d="M503.71 450.23h-.99v-6.96h.99zm0-8.26h-.99v-.98h.99z" transform="translate(-503.21 -445.61)"></path></g><g transform="translate(431.58 122.25)"><linearGradient id="G" x1="-18.1" x2="16.86" y1="0" y2="0" gradientUnits="objectBoundingBox"><stop offset="0%" stop-color="#9c7945"></stop><stop offset="49.8%" stop-color="#faf3aa"></stop><stop offset="100%" stop-color="#9c7945"></stop></linearGradient><path fill="url(#G)" d="M506.24 450.23h-1v-6.96h9.19q.41 0 .74.2t.52.53q.2.33.2.72v5.51h-.98v-5.51q0-.19-.14-.33t-.34-.14h-2.89q-.19 0-.33.14t-.14.33v5.51h-.99v-5.51q0-.19-.14-.33t-.33-.14h-2.9q-.2 0-.33.14-.14.14-.14.33z" transform="translate(-510.56 -446.75)"></path></g><g transform="translate(438.46 121.11)"><linearGradient id="H" x1="-89.8" x2="78.28" y1="0" y2="0" gradientUnits="objectBoundingBox"><stop offset="0%" stop-color="#9c7945"></stop><stop offset="49.8%" stop-color="#faf3aa"></stop><stop offset="100%" stop-color="#9c7945"></stop></linearGradient><path fill="url(#H)" d="M517.94 450.23h-.99v-6.96h.99zm0-8.26h-.99v-.98h.99z" transform="translate(-517.45 -445.61)"></path></g><g transform="translate(444.04 122.25)"><linearGradient id="I" x1="-27.06" x2="22.33" y1="0" y2="0" gradientUnits="objectBoundingBox"><stop offset="0%" stop-color="#9c7945"></stop><stop offset="49.8%" stop-color="#faf3aa"></stop><stop offset="100%" stop-color="#9c7945"></stop></linearGradient><path fill="url(#I)" d="M526.57 450.23h-7.1v-1.34l6.02-4.64h-6.02v-.98h7.1v1.34l-6.02 4.64h6.02z" transform="translate(-523.02 -446.75)"></path></g><g transform="translate(452.39 122.25)"><linearGradient id="J" x1="-28.22" x2="21.45" y1="0" y2="0" gradientUnits="objectBoundingBox"><stop offset="0%" stop-color="#9c7945"></stop><stop offset="49.8%" stop-color="#faf3aa"></stop><stop offset="100%" stop-color="#9c7945"></stop></linearGradient><path fill="url(#J)" d="M534.92 450.23h-5.64q-.4 0-.73-.2-.33-.2-.53-.53-.19-.33-.19-.72v-2.52h6.09v-1.54q0-.19-.14-.33-.13-.14-.33-.14h-5.62v-.98h5.62q.41 0 .74.2t.53.53q.2.33.2.72zm-5.64-.98h4.64v-2.01h-5.11v1.54q0 .19.14.33t.33.14" transform="translate(-531.38 -446.75)"></path></g><g transform="translate(459.18 121.11)"><linearGradient id="K" x1="-49.46" x2="35.32" y1="0" y2="0" gradientUnits="objectBoundingBox"><stop offset="0%" stop-color="#9c7945"></stop><stop offset="49.8%" stop-color="#faf3aa"></stop><stop offset="100%" stop-color="#9c7945"></stop></linearGradient><path fill="url(#K)" d="M537.62 450.23q-.41 0-.74-.2t-.52-.53q-.19-.33-.19-.72v-7.79h.98v2.28h3.01v.98h-3.01v4.53q0 .19.14.33t.33.14h2.54v.98z" transform="translate(-538.16 -445.61)"></path></g><g transform="translate(462.58 121.11)"><linearGradient id="L" x1="-99.46" x2="68.61" y1="0" y2="0" gradientUnits="objectBoundingBox"><stop offset="0%" stop-color="#9c7945"></stop><stop offset="49.8%" stop-color="#faf3aa"></stop><stop offset="100%" stop-color="#9c7945"></stop></linearGradient><path fill="url(#L)" d="M542.06 450.23h-.99v-6.96h.99zm0-8.26h-.99v-.98h.99z" transform="translate(-541.57 -445.61)"></path></g><g transform="translate(468.12 122.25)"><linearGradient id="M" x1="-30.2" x2="19.62" y1="0" y2="0" gradientUnits="objectBoundingBox"><stop offset="0%" stop-color="#9c7945"></stop><stop offset="49.8%" stop-color="#faf3aa"></stop><stop offset="100%" stop-color="#9c7945"></stop></linearGradient><path fill="url(#M)" d="M545.01 450.23q-.4 0-.73-.2-.33-.2-.52-.53-.2-.33-.2-.72v-4.06q0-.39.2-.72.19-.33.52-.53t.73-.2h4.18q.4 0 .73.2.33.2.53.53t.2.72v4.06q0 .39-.2.72-.2.33-.53.53t-.73.2zm0-.98h4.18q.19 0 .33-.14.13-.14.13-.33v-4.06q0-.19-.13-.33-.14-.14-.33-.14h-4.18q-.19 0-.33.14t-.14.33v4.06q0 .19.14.33t.33.14" transform="translate(-547.1 -446.75)"></path></g><g transform="translate(476.46 122.25)"><linearGradient id="N" x1="-31.02" x2="18.51" y1="0" y2="0" gradientUnits="objectBoundingBox"><stop offset="0%" stop-color="#9c7945"></stop><stop offset="49.8%" stop-color="#faf3aa"></stop><stop offset="100%" stop-color="#9c7945"></stop></linearGradient><path fill="url(#N)" d="M552.88 450.23h-.98v-6.96h5.64q.39 0 .72.2.33.2.53.53t.2.72v5.51h-.98v-5.51q0-.19-.14-.33t-.33-.14h-4.18q-.19 0-.33.14-.15.14-.15.33z" transform="translate(-555.45 -446.75)"></path></g><g transform="translate(488.45 121.41)"><linearGradient id="O" x1="-29.72" x2="15.62" y1="0" y2="0" gradientUnits="objectBoundingBox"><stop offset="0%" stop-color="#9c7945"></stop><stop offset="49.8%" stop-color="#faf3aa"></stop><stop offset="100%" stop-color="#9c7945"></stop></linearGradient><path fill="url(#O)" d="M567.92 450.23h-.97v-7.67h-3.84v-.97h8.64v.97h-3.83z" transform="translate(-567.43 -445.91)"></path></g><g transform="translate(497.18 121.11)"><linearGradient id="P" x1="-34.9" x2="16.74" y1="0" y2="0" gradientUnits="objectBoundingBox"><stop offset="0%" stop-color="#9c7945"></stop><stop offset="49.8%" stop-color="#faf3aa"></stop><stop offset="100%" stop-color="#9c7945"></stop></linearGradient><path fill="url(#P)" d="M573.61 450.23h-.99v-9.24h.99v2.28h4.65q.4 0 .73.2.33.2.53.53.19.33.19.72v5.51h-.98v-5.51q0-.19-.14-.33t-.33-.14h-4.17q-.2 0-.34.14t-.14.33z" transform="translate(-576.16 -445.61)"></path></g><g transform="translate(505.16 122.25)"><linearGradient id="Q" x1="-34.66" x2="15.16" y1="0" y2="0" gradientUnits="objectBoundingBox"><stop offset="0%" stop-color="#9c7945"></stop><stop offset="49.8%" stop-color="#faf3aa"></stop><stop offset="100%" stop-color="#9c7945"></stop></linearGradient><path fill="url(#Q)" d="M582.05 450.23q-.39 0-.72-.2-.33-.2-.53-.53t-.2-.72v-4.06q0-.39.2-.72.2-.33.53-.53t.72-.2h4.18q.41 0 .74.2t.53.53q.19.33.19.72v2.52h-6.1v1.54q0 .19.13.33.14.14.33.14h5.64v.98zm-.46-5.51v1.54h5.11v-1.54q0-.19-.14-.33t-.33-.14h-4.18q-.19 0-.33.14-.13.14-.13.33" transform="translate(-584.14 -446.75)"></path></g><g transform="translate(513.36 123.64)"><linearGradient id="R" x1="-36.02" x2="14.32" y1="0" y2="0" gradientUnits="objectBoundingBox"><stop offset="0%" stop-color="#9c7945"></stop><stop offset="49.8%" stop-color="#faf3aa"></stop><stop offset="100%" stop-color="#9c7945"></stop></linearGradient><path fill="url(#R)" d="M594.43 452.99h-4.35v-1h4.35q.19 0 .33-.13.13-.14.13-.33v-1.3h-4.64q-.4 0-.73-.2-.33-.2-.52-.53-.2-.33-.2-.72v-5.49h.98v5.49q0 .19.14.33t.33.14h4.18q.19 0 .33-.14.13-.14.13-.33v-5.49h.99v8.24q0 .4-.19.73-.2.33-.53.53t-.73.2" transform="translate(-592.34 -448.14)"></path></g><g transform="translate(525.8 121.41)"><linearGradient id="S" x1="-30.73" x2="10.43" y1="0" y2="0" gradientUnits="objectBoundingBox"><stop offset="0%" stop-color="#9c7945"></stop><stop offset="49.8%" stop-color="#faf3aa"></stop><stop offset="100%" stop-color="#9c7945"></stop></linearGradient><path fill="url(#S)" d="M607.67 450.23h-7.2v-8.64h7.2q.4 0 .73.19.33.19.52.52t.19.73v5.76q0 .4-.19.73-.19.33-.52.52t-.73.19m-5.76-.97h5.76q.2 0 .33-.14.14-.14.14-.33v-5.76q0-.19-.14-.33-.13-.14-.33-.14h-5.76q-.19 0-.33.14-.13.14-.13.33v5.76q0 .19.13.33.14.14.33.14" transform="translate(-604.79 -445.91)"></path></g><g transform="translate(534.96 122.25)"><linearGradient id="T" x1="-38.25" x2="11.57" y1="0" y2="0" gradientUnits="objectBoundingBox"><stop offset="0%" stop-color="#9c7945"></stop><stop offset="49.8%" stop-color="#faf3aa"></stop><stop offset="100%" stop-color="#9c7945"></stop></linearGradient><path fill="url(#T)" d="M611.85 450.23q-.4 0-.73-.2-.33-.2-.52-.53-.2-.33-.2-.72v-4.06q0-.39.2-.72.19-.33.52-.53t.73-.2h4.18q.4 0 .73.2.33.2.53.53t.2.72v2.52h-6.11v1.54q0 .19.14.33t.33.14h5.64v.98zm-.47-5.51v1.54h5.11v-1.54q0-.19-.13-.33-.14-.14-.33-.14h-4.18q-.19 0-.33.14t-.14.33" transform="translate(-613.95 -446.75)"></path></g><g transform="translate(543.23 122.25)"><linearGradient id="U" x1="-39.59" x2="10.68" y1="0" y2="0" gradientUnits="objectBoundingBox"><stop offset="0%" stop-color="#9c7945"></stop><stop offset="49.8%" stop-color="#faf3aa"></stop><stop offset="100%" stop-color="#9c7945"></stop></linearGradient><path fill="url(#U)" d="M620.12 450.23q-.4 0-.73-.2-.33-.2-.53-.53-.19-.33-.19-.72v-.1h.98v.1q0 .19.14.33t.33.14h4.17q.2 0 .33-.14.14-.14.14-.33v-1.07q0-.19-.14-.33-.13-.14-.33-.14h-4.17q-.4 0-.73-.2-.33-.19-.53-.52-.19-.33-.19-.73v-1.07q0-.39.19-.72.2-.33.53-.53t.73-.2h4.17q.41 0 .74.2t.53.53q.2.33.2.72v.1h-1v-.1q0-.19-.14-.33-.13-.14-.33-.14h-4.17q-.19 0-.33.14t-.14.33v1.07q0 .19.14.33t.33.14h4.17q.41 0 .74.2.33.19.53.52t.2.73v1.07q0 .39-.2.72-.2.33-.53.53t-.74.2z" transform="translate(-622.22 -446.75)"></path></g><g transform="translate(551.5 122.25)"><linearGradient id="V" x1="-40.24" x2="9.58" y1="0" y2="0" gradientUnits="objectBoundingBox"><stop offset="0%" stop-color="#9c7945"></stop><stop offset="49.8%" stop-color="#faf3aa"></stop><stop offset="100%" stop-color="#9c7945"></stop></linearGradient><path fill="url(#V)" d="M628.39 450.23q-.4 0-.73-.2-.33-.2-.53-.53t-.2-.72v-4.06q0-.39.2-.72.2-.33.53-.53t.73-.2h4.17q.41 0 .74.2t.53.53q.2.33.2.72v2.52h-6.11v1.54q0 .19.14.33.13.14.33.14h5.64v.98zm-.47-5.51v1.54h5.11v-1.54q0-.19-.14-.33t-.33-.14h-4.17q-.2 0-.33.14-.14.14-.14.33" transform="translate(-630.48 -446.75)"></path></g><g transform="translate(558.95 122.25)"><linearGradient id="W" x1="-55.73" x2="11.95" y1="0" y2="0" gradientUnits="objectBoundingBox"><stop offset="0%" stop-color="#9c7945"></stop><stop offset="49.8%" stop-color="#faf3aa"></stop><stop offset="100%" stop-color="#9c7945"></stop></linearGradient><path fill="url(#W)" d="M636.23 450.23h-.98v-5.51q0-.39.2-.72.2-.33.53-.53t.72-.2h3.91v.98h-3.91q-.19 0-.33.14t-.14.33z" transform="translate(-637.93 -446.75)"></path></g><g transform="translate(566.45 122.25)"><linearGradient id="X" x1="-36.77" x2="6.75" y1="0" y2="0" gradientUnits="objectBoundingBox"><stop offset="0%" stop-color="#9c7945"></stop><stop offset="49.8%" stop-color="#faf3aa"></stop><stop offset="100%" stop-color="#9c7945"></stop></linearGradient><path fill="url(#X)" d="M646 450.23h-1.14l-3.84-6.96h1.15l3.27 6 3.26-6h1.15z" transform="translate(-645.43 -446.75)"></path></g><g transform="translate(575.42 122.25)"><linearGradient id="Y" x1="-43.12" x2="6.7" y1="0" y2="0" gradientUnits="objectBoundingBox"><stop offset="0%" stop-color="#9c7945"></stop><stop offset="49.8%" stop-color="#faf3aa"></stop><stop offset="100%" stop-color="#9c7945"></stop></linearGradient><path fill="url(#Y)" d="M652.31 450.23q-.39 0-.72-.2-.33-.2-.53-.53t-.2-.72v-4.06q0-.39.2-.72.2-.33.53-.53t.72-.2h4.18q.41 0 .74.2t.53.53q.19.33.19.72v2.52h-6.1v1.54q0 .19.13.33.14.14.33.14h5.64v.98zm-.46-5.51v1.54h5.11v-1.54q0-.19-.14-.33t-.33-.14h-4.18q-.19 0-.33.14-.13.14-.13.33" transform="translate(-654.4 -446.75)"></path></g><g transform="translate(580.71 125.24)"><linearGradient id="Z" x1="-142.66" x2="20.67" y1="0" y2="0" gradientUnits="objectBoundingBox"><stop offset="0%" stop-color="#9c7945"></stop><stop offset="49.8%" stop-color="#faf3aa"></stop><stop offset="100%" stop-color="#9c7945"></stop></linearGradient><path fill="url(#Z)" d="M660.19 450.23h-.99v-.98h.99z" transform="translate(-659.7 -449.74)"></path></g></svg></svg>